<?xml version="1.0" standalone="no"?>
<!DOCTYPE svg PUBLIC "-//W3C//DTD SVG 20010904//EN"
 "http://www.w3.org/TR/2001/REC-SVG-20010904/DTD/svg10.dtd">
<svg version="1.0" xmlns="http://www.w3.org/2000/svg"
 width="512.000000pt" height="512.000000pt" viewBox="0 0 512.000000 512.000000"
 preserveAspectRatio="xMidYMid meet">
<metadata>
Created by potrace 1.11, written by Peter Selinger 2001-2013
</metadata>
<g transform="translate(0.000000,512.000000) scale(0.100000,-0.100000)"
fill="#000000" stroke="none">
<path d="M3088 4905 c-2 -1 -34 -5 -71 -9 -97 -9 -162 -19 -262 -41 -201 -43
-479 -163 -660 -284 -302 -203 -558 -494 -703 -802 -78 -166 -133 -346 -158
-524 -3 -22 -8 -51 -12 -65 -12 -47 -14 -2380 -2 -2461 25 -173 108 -308 248
-402 39 -26 77 -47 84 -47 8 0 18 -3 22 -7 30 -31 202 -57 319 -50 162 10 280
54 391 144 90 72 172 203 191 303 3 14 8 39 12 55 4 17 7 541 8 1165 2 1198 1
1185 48 1310 33 88 75 150 158 232 133 131 297 209 489 234 277 35 372 63 495
147 163 112 248 354 209 595 -23 144 -80 250 -189 350 -126 115 -259 160 -475
160 -76 0 -140 -1 -142 -3z"/>
</g>
</svg>
